<svg width="24" height="25" viewBox="0 0 24 25" fill="none" xmlns="http://www.w3.org/2000/svg">
<path d="M13.125 12.584C13.125 12.8065 13.059 13.024 12.9354 13.209C12.8118 13.394 12.6361 13.5382 12.4305 13.6233C12.225 13.7085 11.9988 13.7308 11.7805 13.6874C11.5623 13.644 11.3618 13.5368 11.2045 13.3795C11.0472 13.2221 10.94 13.0217 10.8966 12.8035C10.8532 12.5852 10.8755 12.359 10.9606 12.1535C11.0458 11.9479 11.19 11.7722 11.375 11.6486C11.56 11.525 11.7775 11.459 12 11.459C12.2984 11.459 12.5845 11.5775 12.7955 11.7885C13.0065 11.9995 13.125 12.2856 13.125 12.584ZM12 7.33398C12.2225 7.33398 12.44 7.26801 12.625 7.14439C12.81 7.02077 12.9542 6.84507 13.0394 6.6395C13.1245 6.43394 13.1468 6.20774 13.1034 5.98951C13.06 5.77128 12.9528 5.57082 12.7955 5.41349C12.6382 5.25616 12.4377 5.14901 12.2195 5.1056C12.0012 5.06219 11.775 5.08447 11.5695 5.16962C11.3639 5.25477 11.1882 5.39896 11.0646 5.58397C10.941 5.76897 10.875 5.98648 10.875 6.20898C10.875 6.50735 10.9935 6.7935 11.2045 7.00448C11.4155 7.21546 11.7016 7.33398 12 7.33398ZM12 17.834C11.7775 17.834 11.56 17.9 11.375 18.0236C11.19 18.1472 11.0458 18.3229 10.9606 18.5285C10.8755 18.734 10.8532 18.9602 10.8966 19.1785C10.94 19.3967 11.0472 19.5971 11.2045 19.7545C11.3618 19.9118 11.5623 20.019 11.7805 20.0624C11.9988 20.1058 12.225 20.0835 12.4305 19.9983C12.6361 19.9132 12.8118 19.769 12.9354 19.584C13.059 19.399 13.125 19.1815 13.125 18.959C13.125 18.6606 13.0065 18.3745 12.7955 18.1635C12.5845 17.9525 12.2984 17.834 12 17.834Z" fill="#F7F7F7"/>
</svg>
