<svg width="232" height="212" viewBox="0 0 232 212" fill="none" xmlns="http://www.w3.org/2000/svg">
<circle cx="114.899" cy="115.482" r="95.8982" fill="#F7F7F7"/>
<circle cx="24.7464" cy="50.3945" r="6.01071" fill="#F7F7F7"/>
<circle cx="182.938" cy="11.3248" r="11.2018" fill="#F7F7F7"/>
<circle cx="26.6589" cy="176.893" r="10.6554" fill="#F7F7F7"/>
<circle cx="217.363" cy="166.511" r="10.6554" fill="#F7F7F7"/>
<circle cx="196.598" cy="178.532" r="5.19107" fill="#F7F7F7"/>
<path d="M222.367 133.632L224.04 141.537L231.833 143.235L224.04 144.932L222.367 152.838L220.694 144.932L212.901 143.235L220.694 141.537L222.367 133.632Z" fill="#B1BDD0"/>
<path d="M212.36 52.9201C212.482 52.3424 213.307 52.3424 213.429 52.9201L214.495 57.9544C214.539 58.1647 214.703 58.3293 214.913 58.3751L219.909 59.4636C220.483 59.5885 220.483 60.4065 219.909 60.5314L214.913 61.6199C214.703 61.6657 214.539 61.8303 214.495 62.0407L213.429 67.0749C213.307 67.6526 212.482 67.6526 212.36 67.0749L211.294 62.0407C211.25 61.8303 211.086 61.6657 210.876 61.6199L205.879 60.5314C205.306 60.4065 205.306 59.5885 205.879 59.4636L210.876 58.3751C211.086 58.3293 211.25 58.1647 211.294 57.9544L212.36 52.9201Z" fill="#B1BDD0"/>
<path d="M13.9396 119.038C14.0619 118.461 14.8865 118.461 15.0088 119.038L16.8354 127.668C16.8799 127.878 17.0436 128.043 17.2537 128.089L25.7941 129.949C26.3676 130.074 26.3676 130.892 25.7941 131.017L17.2537 132.877C17.0436 132.923 16.8799 133.088 16.8354 133.298L15.0088 141.928C14.8865 142.505 14.0619 142.505 13.9396 141.928L12.113 133.298C12.0685 133.088 11.9048 132.923 11.6948 132.877L3.15435 131.017C2.58086 130.892 2.58087 130.074 3.15436 129.949L11.6948 128.089C11.9048 128.043 12.0685 127.878 12.113 127.668L13.9396 119.038Z" fill="#B1BDD0"/>
<path d="M47.9834 27.1913C47.6666 27.1239 47.6666 26.6718 47.9834 26.6044L52.7732 25.5858C52.8887 25.5613 52.979 25.4713 53.004 25.356L54.0353 20.5999C54.1037 20.2847 54.5533 20.2847 54.6217 20.5999L55.653 25.356C55.678 25.4713 55.7684 25.5613 55.8838 25.5858L60.6736 26.6044C60.9904 26.6718 60.9904 27.1239 60.6736 27.1913L55.8838 28.2099C55.7684 28.2344 55.678 28.3244 55.653 28.4397L54.6217 33.1958C54.5533 33.511 54.1037 33.511 54.0353 33.1958L53.004 28.4397C52.979 28.3244 52.8887 28.2344 52.7732 28.2099L47.9834 27.1913Z" fill="#B1BDD0"/>
<path d="M162.385 65.584H67.6159C65.3309 65.584 63.1396 66.4917 61.5239 68.1074C59.9082 69.7231 59.0005 71.9144 59.0005 74.1994V160.353C59 161.088 59.1873 161.81 59.5448 162.452C59.9022 163.094 60.4179 163.634 61.0428 164.02C61.6676 164.407 62.3809 164.627 63.1148 164.66C63.8487 164.693 64.5789 164.537 65.2359 164.209L80.539 156.552L95.842 164.209C96.4405 164.508 97.1005 164.664 97.7697 164.664C98.4389 164.664 99.0989 164.508 99.6974 164.209L115 156.552L130.304 164.209C130.902 164.508 131.562 164.664 132.231 164.664C132.9 164.664 133.56 164.508 134.159 164.209L149.462 156.552L164.765 164.209C165.422 164.537 166.152 164.693 166.886 164.66C167.62 164.627 168.333 164.407 168.958 164.02C169.583 163.634 170.099 163.094 170.456 162.452C170.814 161.81 171.001 161.088 171 160.353V74.1994C171 71.9144 170.093 69.7231 168.477 68.1074C166.861 66.4917 164.67 65.584 162.385 65.584ZM162.385 153.386L151.39 147.882C150.791 147.583 150.131 147.427 149.462 147.427C148.793 147.427 148.133 147.583 147.534 147.882L132.231 155.539L116.928 147.882C116.33 147.583 115.67 147.427 115 147.427C114.331 147.427 113.671 147.583 113.073 147.882L97.7697 155.539L82.4666 147.882C81.8682 147.583 81.2082 147.427 80.539 147.427C79.8697 147.427 79.2097 147.583 78.6113 147.882L67.6159 153.386V74.1994H162.385V153.386ZM78.6113 134.055C79.1175 134.308 79.6687 134.46 80.2334 134.5C80.7982 134.54 81.3653 134.469 81.9024 134.29C82.4395 134.111 82.936 133.828 83.3636 133.456C83.7912 133.085 84.1415 132.634 84.3943 132.127L87.5066 125.892H108.033L111.145 132.127C111.398 132.633 111.749 133.085 112.176 133.456C112.604 133.827 113.1 134.11 113.637 134.289C114.174 134.468 114.741 134.539 115.306 134.499C115.871 134.459 116.422 134.308 116.928 134.055C117.434 133.802 117.886 133.451 118.257 133.024C118.628 132.596 118.911 132.099 119.09 131.562C119.269 131.025 119.34 130.458 119.3 129.894C119.26 129.329 119.109 128.778 118.856 128.272L101.625 93.8101C101.268 93.0933 100.718 92.4903 100.037 92.0688C99.3557 91.6473 98.5706 91.424 97.7697 91.424C96.9688 91.424 96.1837 91.6473 95.5027 92.0688C94.8216 92.4903 94.2716 93.0933 93.9143 93.8101L76.6836 128.272C76.43 128.778 76.2788 129.329 76.2385 129.894C76.1982 130.459 76.2696 131.026 76.4486 131.563C76.6276 132.1 76.9108 132.596 77.2819 133.024C77.653 133.452 78.1047 133.802 78.6113 134.055ZM97.7697 105.371L103.725 117.276H91.8143L97.7697 105.371ZM119.308 112.969C119.308 111.826 119.762 110.73 120.57 109.923C121.378 109.115 122.473 108.661 123.616 108.661H132.231V100.046C132.231 98.903 132.685 97.8074 133.493 96.9995C134.301 96.1917 135.396 95.7378 136.539 95.7378C137.681 95.7378 138.777 96.1917 139.585 96.9995C140.393 97.8074 140.847 98.903 140.847 100.046V108.661H149.462C150.604 108.661 151.7 109.115 152.508 109.923C153.316 110.73 153.77 111.826 153.77 112.969C153.77 114.111 153.316 115.207 152.508 116.015C151.7 116.822 150.604 117.276 149.462 117.276H140.847V125.892C140.847 127.034 140.393 128.13 139.585 128.938C138.777 129.746 137.681 130.199 136.539 130.199C135.396 130.199 134.301 129.746 133.493 128.938C132.685 128.13 132.231 127.034 132.231 125.892V117.276H123.616C122.473 117.276 121.378 116.822 120.57 116.015C119.762 115.207 119.308 114.111 119.308 112.969Z" fill="#B1BDD0"/>
</svg>
