<svg width="16" height="17" viewBox="0 0 16 17" fill="none" xmlns="http://www.w3.org/2000/svg">
<path d="M13 2.58398H3C2.73478 2.58398 2.48043 2.68934 2.29289 2.87688C2.10536 3.06441 2 3.31877 2 3.58398V13.584C2 13.8492 2.10536 14.1036 2.29289 14.2911C2.48043 14.4786 2.73478 14.584 3 14.584H13C13.2652 14.584 13.5196 14.4786 13.7071 14.2911C13.8946 14.1036 14 13.8492 14 13.584V3.58398C14 3.31877 13.8946 3.06441 13.7071 2.87688C13.5196 2.68934 13.2652 2.58398 13 2.58398ZM3 3.58398H13V8.42023L11.4569 6.87648C11.2694 6.68909 11.0151 6.58382 10.75 6.58382C10.4849 6.58382 10.2306 6.68909 10.0431 6.87648L3.33562 13.584H3V3.58398ZM13 13.584H4.75L10.75 7.58398L13 9.83398V13.584ZM6 8.08398C6.29667 8.08398 6.58668 7.99601 6.83336 7.83119C7.08003 7.66637 7.27229 7.4321 7.38582 7.15801C7.49935 6.88392 7.52906 6.58232 7.47118 6.29135C7.4133 6.00038 7.27044 5.7331 7.06066 5.52332C6.85088 5.31355 6.58361 5.17068 6.29264 5.11281C6.00166 5.05493 5.70006 5.08463 5.42597 5.19816C5.15189 5.3117 4.91762 5.50396 4.7528 5.75063C4.58797 5.9973 4.5 6.28731 4.5 6.58398C4.5 6.98181 4.65804 7.36334 4.93934 7.64464C5.22064 7.92595 5.60218 8.08398 6 8.08398ZM6 6.08398C6.09889 6.08398 6.19556 6.11331 6.27779 6.16825C6.36001 6.22319 6.4241 6.30128 6.46194 6.39264C6.49978 6.48401 6.50969 6.58454 6.49039 6.68153C6.4711 6.77852 6.42348 6.86761 6.35355 6.93754C6.28363 7.00746 6.19454 7.05508 6.09755 7.07438C6.00055 7.09367 5.90002 7.08377 5.80866 7.04592C5.7173 7.00808 5.63921 6.94399 5.58427 6.86177C5.52932 6.77955 5.5 6.68288 5.5 6.58398C5.5 6.45138 5.55268 6.3242 5.64645 6.23043C5.74021 6.13666 5.86739 6.08398 6 6.08398Z" fill="#F7F7F7"/>
</svg>
