<svg width="24" height="25" viewBox="0 0 24 25" fill="none" xmlns="http://www.w3.org/2000/svg">
<path d="M19.2806 18.8038C19.3502 18.8735 19.4055 18.9562 19.4432 19.0472C19.4809 19.1383 19.5003 19.2359 19.5003 19.3344C19.5003 19.4329 19.4809 19.5305 19.4432 19.6216C19.4055 19.7126 19.3502 19.7953 19.2806 19.865C19.2109 19.9347 19.1281 19.99 19.0371 20.0277C18.9461 20.0654 18.8485 20.0848 18.7499 20.0848C18.6514 20.0848 18.5538 20.0654 18.4628 20.0277C18.3717 19.99 18.289 19.9347 18.2193 19.865L11.9999 13.6447L5.78055 19.865C5.63982 20.0058 5.44895 20.0848 5.24993 20.0848C5.05091 20.0848 4.86003 20.0058 4.7193 19.865C4.57857 19.7243 4.49951 19.5334 4.49951 19.3344C4.49951 19.1354 4.57857 18.9445 4.7193 18.8038L10.9396 12.5844L4.7193 6.36503C4.57857 6.2243 4.49951 6.03342 4.49951 5.8344C4.49951 5.63538 4.57857 5.44451 4.7193 5.30378C4.86003 5.16305 5.05091 5.08398 5.24993 5.08398C5.44895 5.08398 5.63982 5.16305 5.78055 5.30378L11.9999 11.5241L18.2193 5.30378C18.36 5.16305 18.5509 5.08398 18.7499 5.08398C18.949 5.08398 19.1398 5.16305 19.2806 5.30378C19.4213 5.44451 19.5003 5.63538 19.5003 5.8344C19.5003 6.03342 19.4213 6.2243 19.2806 6.36503L13.0602 12.5844L19.2806 18.8038Z" fill="#F7F7F7"/>
</svg>
